Nightmare on elm street 1-8
 
http://www.imdb.com/title/tt0087800/ 
http://www.imdb.com/title/tt0089686/ 
http://www.imdb.com/title/tt0093629/ 
http://www.imdb.com/title/tt0095742/ 
http://www.imdb.com/title/tt0097981/ 
http://www.imdb.com/title/tt0101917/ 
http://www.imdb.com/title/tt0111686/ 
http://www.imdb.com/title/tt0329101/



Source  : 
http://thepiratebay.org/torrent/3857501/Nightmare_on_Elm_Street_1-7_[x264_ac3_mkv]

+

Freddy.Vs.Jason.2003.720p.BluRay.x264-SiNNERS

+

2010 Teaser 1080p trailer

no subs!



Info from nightmare on elm street episode 1 :

ID                               : 1
Format                           : AVC
Format/Info                      : Advanced Video Codec
Format profile                   : Baseline@L2.1
Format settings, CABAC           : No
Format settings, ReFrames        : 3 frames
Codec ID                         : avc1
Codec ID/Info                    : Advanced Video Coding
Duration                         : 1h 27mn
Bit rate mode                    : Variable
Bit rate                         : 400 Kbps
Width                            : 480 pixels
Height                           : 256 pixels
Display aspect ratio             : 1.875
Frame rate mode                  : Constant
Frame rate                       : 25.000 fps
Color space                      : YUV
Chroma subsampling               : 4:2:0
Bit depth                        : 8 bits
Scan type                        : Progressive
Bits/(Pixel*Frame)               : 0.130
Stream size                      : 250 MiB (75%)
Writing library                  : x264 core 79

ID                               : 2
Format                           : AAC
Format/Info                      : Advanced Audio Codec
Format version                   : Version 4
Format profile                   : LC
Format settings, SBR             : No
Codec ID                         : 40
Duration                         : 1h 27mn
Bit rate mode                    : Variable
Bit rate                         : 128 Kbps
Maximum bit rate                 : 159 Kbps
Channel(s)                       : 2 channels
Channel positions                : Front: L R
Sampling rate                    : 48.0 KHz
Stream size                      : 80.1 MiB (24%)
Language                         : English

Screens : 
http://img15.imageshack.us/img15/6819/vlcsnap00001y.png 
http://img641.imageshack.us/img641/1308/vlcsnap00002c.png 
http://img341.imageshack.us/img341/5871/vlcsnap00003b.png 
http://img180.imageshack.us/img180/5591/vlcsnap00004j.png 
http://img6.imageshack.us/img6/9950/vlcsnap00005si.png 
http://img337.imageshack.us/img337/3815/vlcsnap00006w.png 
http://img132.imageshack.us/img132/7137/vlcsnap00007l.png 
http://img576.imageshack.us/img576/8698/vlcsnap00008x.png



PLEASE LET THE TORRENT SEED AND SHARE IT WITH ALL YOU KNOW!

Let me know what I can do to be your trusted source of Handheld videos. 
http://thepiratebay.org/user/on.off.on/ -OOO